<svg xmlns="http://www.w3.org/2000/svg" id="Layer_1" data-name="Layer 1" width="1598.84" height="1215.78" viewBox="0 0 1598.84 1215.78"><g id="Group_8020" data-name="Group 8020"><g id="Group_8018" data-name="Group 8018"><path id="Path_7725" data-name="Path 7725" d="M593.29,554.84a143.2,143.2,0,0,1-143-143v-264a143.2,143.2,0,0,1,143-143h264A143,143,0,0,1,999.72,134.85,25.7,25.7,0,1,1,948.81,142a24.39,24.39,0,0,1-.23-2.55,91.07,91.07,0,0,0-91.25-83.26h-264a91.74,91.74,0,0,0-91.64,91.64v264a91.75,91.75,0,0,0,91.64,91.64,25.71,25.71,0,0,1,0,51.41Z" transform="translate(-5.06 -4.78)" fill="#263e39"></path></g><g id="Group_8019" data-name="Group 8019"><path id="Path_7726" data-name="Path 7726" d="M594.19,529.14" transform="translate(-5.06 -4.78)" fill="none" stroke="#e32521" stroke-linecap="round" stroke-linejoin="round" stroke-width="300.81"></path></g><path id="Path_7727" data-name="Path 7727" d="M999.87,111.45H841.34a143.2,143.2,0,0,0-143,143v50.64a145,145,0,0,0,1.28,19V639.66a25.71,25.71,0,0,0,51.41,0v-224a142.77,142.77,0,0,0,90.35,32.48H999.87a143.19,143.19,0,0,0,143-143V254.5A143.19,143.19,0,0,0,999.87,111.45Zm91.74,193.67A91.75,91.75,0,0,1,1000,396.77H841.34a91.62,91.62,0,0,1-91.64-91.66V254.47a91.74,91.74,0,0,1,91.62-91.63H999.87a91.75,91.75,0,0,1,91.64,91.63Z" transform="translate(-5.06 -4.78)" fill="#b5803a"></path></g><path d="M188.19,1107.74a226.25,226.25,0,0,1-42.05,3.85q-40.24,0-67.15-12.21t-43.41-32.56A123.49,123.49,0,0,1,12.07,1020a213.26,213.26,0,0,1-7-54.94q0-36.17,9.5-66.47T43,846.39q19-21.93,47.71-34.14T157.9,800a252.47,252.47,0,0,1,33.23,2.26A202.78,202.78,0,0,1,223,809.09l-8.14,54.25a164,164,0,0,0-59.69-10.85q-21.7,0-37.75,7.69a73.89,73.89,0,0,0-26.68,21.25Q80.11,895,74.92,914a155.25,155.25,0,0,0-5.2,41.15q0,49.74,21.25,76.41t67.83,26.68a146,146,0,0,0,30.07-3.39,115.79,115.79,0,0,0,27.81-9.27l9,52A234.14,234.14,0,0,1,188.19,1107.74Z" transform="translate(-5.06 -4.78)"></path><path d="M275,1108V777.89h58.33V1108Z" transform="translate(-5.06 -4.78)"></path><path d="M460.39,815a32.9,32.9,0,0,1-10.63,24.65,35.62,35.62,0,0,1-25.54,10.17,34.89,34.89,0,0,1-25.33-10.17A33.23,33.23,0,0,1,388.49,815a34,34,0,0,1,10.4-24.87,34.5,34.5,0,0,1,25.33-10.4,35.63,35.63,0,0,1,25.54,10.18A33.38,33.38,0,0,1,460.39,815Zm-65.11,293V883.24h58.33V1108Z" transform="translate(-5.06 -4.78)"></path><path d="M634.24,1109.32A210,210,0,0,1,601,1112q-23.52,0-42.28-6.33a80.8,80.8,0,0,1-31.88-19.45q-13.11-13.11-20.12-33.91t-7-49.29a164.29,164.29,0,0,1,7-48.83,112.17,112.17,0,0,1,21-39.34,96.19,96.19,0,0,1,35.49-26.22q21.48-9.49,50.87-9.5a160.8,160.8,0,0,1,25.78,2.06,149,149,0,0,1,23.51,5.7l-9,50.12a135.53,135.53,0,0,0-19.9-6.11,99.31,99.31,0,0,0-22.16-2.48q-25.77,0-38.88,19t-13.12,50.19a119.71,119.71,0,0,0,2.72,26.45,54.46,54.46,0,0,0,9,20.57A42.59,42.59,0,0,0,588.35,1058q9.95,4.76,24.42,4.75a102.46,102.46,0,0,0,43.86-9.49l7.68,48.38A152.26,152.26,0,0,1,634.24,1109.32Z" transform="translate(-5.06 -4.78)"></path><path d="M835.68,1108,766.05,996.73V1108H707.72V777.89h58.33v199l65.56-93.6h70.54L823.47,985.88,908,1108Z" transform="translate(-5.06 -4.78)"></path><path d="M1145.86,895.24a114.39,114.39,0,0,1-7.94,42.86,94.34,94.34,0,0,1-23.35,34.29q-15.43,14.43-38.11,22.78t-52.16,8.35h-8.17a46.9,46.9,0,0,1-6.8-.46,38.22,38.22,0,0,1-6.35-.45V1108H944.65V803.21q12.21-.45,26.23-.91,11.75-.43,27.35-.68t31.88-.22q56.52,0,86.14,24.37T1145.86,895.24Zm-61,5.42q0-24.76-13.87-38t-45.24-13.28c-3,0-5.84.08-8.41.22s-4.92.23-7,.23H1003V952a43.67,43.67,0,0,0,7.28,1.35q3.63.45,8.18.68c3,.15,6.22.22,9.55.22q28.63,0,42.74-14.18T1084.82,900.66Z" transform="translate(-5.06 -4.78)"></path><path d="M1299.65,1108q0-9.95.45-19.45a184.58,184.58,0,0,1,1.81-18.53l-.45-.46q-8.13,19-27.36,31t-44.56,12q-30.75,0-47.49-18.31t-16.74-45.9q0-19.89,9.27-34.59t26.22-24.42q17-9.71,40.93-14.47a275.71,275.71,0,0,1,53.35-4.74v-8.14q0-20.35-8.82-29.85t-31.42-9.49a147.06,147.06,0,0,0-34.14,4.52A216.65,216.65,0,0,0,1187,938l-9.49-44.31a222.68,222.68,0,0,1,39.56-11.08,240.87,240.87,0,0,1,45.45-4.29q26.21,0,43.74,5.2t28,15.37a56,56,0,0,1,14.81,24.87q4.32,14.7,4.33,33.69v92.69q0,13.56.45,28.71t1.36,29.17Zm-4.57-99.93q-21.7,0-36.17,2.49t-22.84,7q-8.37,4.53-11.75,10.86a28.29,28.29,0,0,0-3.39,13.56,26,26,0,0,0,7.23,18.54q7.23,7.69,19.9,7.69a39.91,39.91,0,0,0,19.21-4.75,49.26,49.26,0,0,0,14.92-12.21,55.92,55.92,0,0,0,9.5-17.18,60.68,60.68,0,0,0,3.39-20.12Z" transform="translate(-5.06 -4.78)"></path><path d="M1514.83,1120.63q-10.85,29.38-22.61,48.61t-25.32,30.52a82.66,82.66,0,0,1-29.62,16,125,125,0,0,1-35.49,4.75q-7.24,0-16.28-.91a140.24,140.24,0,0,1-15.37-2.26l6.78-49.28a75,75,0,0,0,13.79,3.39,98.43,98.43,0,0,0,14.7,1.13,51.17,51.17,0,0,0,14.24-2,44.26,44.26,0,0,0,13.79-7A55.28,55.28,0,0,0,1446.1,1150a91.75,91.75,0,0,0,10.4-21.73l7.24-19.93-83.2-225.08h64.66l30.29,85.91q5,14.48,9.5,30.52t8.14,31.43h.45q1.8-7.68,4.52-17t5.65-18.76q2.94-9.5,5.88-18.77t5.65-17L1542,883.24h62Z" transform="translate(-5.06 -4.78)"></path></svg>